# xmcd
#
# Track frame offsets: 
#        150
#        12142
#        22438
#        32087
#        43509
#        54047
#        65155
#        74766
#        86393
#        96388
#        109580
#        119103
#
# Disc length: 1739 seconds
#
# Revision: 1
# Processed by: cddbd v1.5.2PL0 Copyright (c) Steve Scherf et al.
# Submitted via: ExactAudioCopy v1.1
#
DISCID=a906c90c
DTITLE=Sam Cooke - Twistin' The Night Away
DYEAR=1962
DGENRE=R&B
TTITLE0=Twistin' The Night Away (stereo)
TTITLE1=Sugar Dumpling (stereo)
TTITLE2=Twistin' In The Kitchen With Dinah (stereo)
TTITLE3=Somebody's Gonna Miss Me (stereo)
TTITLE4=A Whole Lotta Woman (stereo)
TTITLE5=The Twist (stereo)
TTITLE6=Twistin' In The Old Town Tonight (stereo)
TTITLE7=Movin' And A'Groovin (stereo)
TTITLE8=Camptown Twist (stereo)
TTITLE9=Somebody Have Mercy (stereo)
TTITLE10=Soothe Me (stereo)
TTITLE11=That's It -- I Quit -- I'm Movin' On (stereo)
EXTD=
EXTT0=
EXTT1=
EXTT2=
EXTT3=
EXTT4=
EXTT5=
EXTT6=
EXTT7=
EXTT8=
EXTT9=
EXTT10=
EXTT11=
PLAYORDER=
